<?xml version="1.0" encoding="utf-8"?>
<svg viewBox="0 0 126 126" xmlns="http://www.w3.org/2000/svg">
  <g transform="matrix(1, 0, 0, 1, 95.709372, 15.303389)">
    <path d="M -32.778 110.697 L -78.149 98.101 L -88.26 -15.303 L 22.841 -15.303 L 12.719 98.084 L -32.778 110.697 Z" fill="#264DE4"/>
    <path d="M 4.054 90.863 L 12.703 -6.031 L -32.71 -6.031 L -32.71 101.056 L 4.054 90.863 Z" fill="#2965F1"/>
    <path d="M -65.081 36.029 L -63.834 49.938 L -32.71 49.938 L -32.71 36.029 L -65.081 36.029 Z" fill="#EBEBEB"/>
    <path d="M -67.586 7.878 L -66.321 21.787 L -32.71 21.787 L -32.71 7.878 L -67.586 7.878 Z" fill="#EBEBEB"/>
    <path d="M -32.71 72.152 L -32.771 72.168 L -48.261 67.985 L -49.251 56.892 L -63.213 56.892 L -61.264 78.731 L -32.774 86.64 L -32.71 86.622 L -32.71 72.152 Z" fill="#EBEBEB"/>
    <path d="M -0.427 36.029 L 2.084 7.878 L -32.758 7.878 L -32.758 21.787 L -13.159 21.787 L -14.425 36.029 L -32.758 36.029 L -32.758 49.938 L -15.631 49.938 L -17.245 67.976 L -32.758 72.163 L -32.758 86.633 L -4.244 78.731 L -4.035 76.381 L -0.767 39.764 L -0.427 36.029 Z" fill="#FFFFFF"/>
  </g>
</svg>