<?xml version="1.0" encoding="utf-8"?>
<svg viewBox="0 0 126 126" xmlns="http://www.w3.org/2000/svg">
  <path d="M 118.551 0 L 108.429 113.387 L 62.933 126 L 17.561 113.405 L 7.45 0 L 118.551 0 Z" fill="#E44D26"/>
  <path d="M 63 116.359 L 99.764 106.168 L 108.413 9.273 L 63 9.273 L 63 116.359 Z" fill="#F16529"/>
  <path d="M 43.324 37.09 L 63 37.09 L 63 23.181 L 28.124 23.181 L 28.457 26.913 L 31.875 65.241 L 63 65.241 L 63 51.333 L 44.596 51.333 L 43.324 37.09 Z M 46.46 72.196 L 32.497 72.196 L 34.446 94.035 L 62.936 101.943 L 63 101.925 L 63 87.455 L 62.94 87.471 L 47.45 83.289 L 46.46 72.196 Z" fill="#EBEBEB"/>
  <path d="M 62.953 65.241 L 80.079 65.241 L 78.465 83.28 L 62.952 87.466 L 62.952 101.937 L 91.466 94.035 L 91.675 91.685 L 94.944 55.067 L 95.283 51.333 L 62.953 51.333 L 62.953 65.241 Z M 62.953 37.056 L 62.953 37.09 L 96.549 37.09 L 96.827 33.964 L 97.461 26.913 L 97.794 23.181 L 62.953 23.181 L 62.953 37.057 L 62.953 37.056 Z" fill="#FFF"/>
</svg>